<?xml version="1.0" standalone="no"?>
<!DOCTYPE svg PUBLIC "-//W3C//DTD SVG 20010904//EN"
 "http://www.w3.org/TR/2001/REC-SVG-20010904/DTD/svg10.dtd">
<svg version="1.0" xmlns="http://www.w3.org/2000/svg"
 width="300.000000pt" height="300.000000pt" viewBox="0 0 300.000000 300.000000"
 preserveAspectRatio="xMidYMid meet">

<g transform="translate(0.000000,300.000000) scale(0.100000,-0.100000)"
fill="#000000" stroke="none">
<path d="M1815 2600 c-154 -4 -473 -11 -710 -15 l-430 -7 -70 -29 c-74 -31
-107 -55 -141 -104 -46 -64 -47 -79 -57 -775 -15 -1092 -16 -1016 14 -1080 37
-79 81 -125 152 -159 l62 -29 580 -16 c829 -23 948 -24 1060 -16 132 11 202
37 254 96 79 90 75 46 79 889 3 803 -3 953 -39 1049 -29 78 -96 147 -166 170
-55 18 -201 37 -268 34 -22 -1 -166 -5 -320 -8z m468 -71 c123 -13 170 -39
211 -114 21 -40 21 -43 24 -879 3 -925 4 -909 -59 -980 -61 -71 -31 -68 -954
-78 -622 -7 -840 -7 -869 2 -53 16 -131 91 -153 148 -17 44 -18 101 -17 872 0
620 3 836 13 868 17 59 65 111 136 143 l60 29 760 -1 c418 0 800 -5 848 -10z"/>
<path d="M845 2146 c-64 -29 -99 -71 -115 -135 -32 -133 73 -270 207 -271 82
0 126 34 175 138 26 53 30 71 24 109 -9 65 -55 144 -97 165 -48 25 -132 22
-194 -6z m152 -36 c57 -35 68 -62 55 -139 -13 -76 -38 -105 -100 -116 -106
-18 -192 96 -146 192 37 75 124 104 191 63z"/>
<path d="M1870 1750 c-59 -11 -90 -23 -162 -65 -32 -19 -61 -35 -64 -35 -2 0
-4 13 -4 29 0 17 -4 32 -8 35 -5 3 -83 8 -174 12 -118 5 -167 4 -172 -4 -4 -6
-11 -186 -16 -399 -5 -214 -13 -420 -16 -459 -9 -100 -9 -99 175 -108 162 -7
198 -3 205 22 3 10 8 151 12 316 l7 298 36 16 c20 8 64 17 99 20 55 4 66 2 86
-18 50 -46 60 -165 46 -524 -4 -109 -3 -130 11 -139 23 -14 343 1 366 18 17
12 18 36 18 327 -1 261 -3 324 -18 381 -48 190 -139 275 -304 282 -43 2 -98 0
-123 -5z m210 -71 c61 -26 122 -92 146 -157 24 -67 29 -267 14 -499 l-13 -193
-114 0 -113 0 7 83 c5 45 8 165 8 267 0 169 -2 189 -21 230 -62 129 -175 166
-326 105 -109 -43 -102 -20 -112 -379 -4 -171 -9 -312 -10 -313 -1 -2 -51 1
-112 5 l-109 7 -3 245 c-2 135 0 327 3 428 l7 182 129 0 129 0 0 -39 c0 -69
18 -70 122 -10 51 29 108 56 128 60 60 13 185 2 240 -22z"/>
<path d="M970 1733 c-19 -1 -77 -6 -127 -9 l-93 -6 -1 -156 c0 -87 -4 -206 -9
-267 -23 -277 -32 -500 -22 -526 13 -33 48 -39 250 -42 133 -2 145 -1 159 18
11 15 13 33 9 70 -5 39 -23 682 -26 888 l0 37 -52 -2 c-29 0 -69 -3 -88 -5z
m88 -57 c3 -3 -1 -81 -9 -173 -8 -97 -13 -272 -12 -414 l2 -247 -109 -7 c-60
-3 -114 -4 -120 0 -7 4 -10 149 -10 432 l0 426 126 -6 c69 -3 129 -8 132 -11z"/>
</g>
</svg>
