<?xml version="1.0" encoding="UTF-8"?>
<svg xmlns="http://www.w3.org/2000/svg" xmlns:xlink="http://www.w3.org/1999/xlink" width="300px" height="300px" viewBox="0 0 300 300" version="1.1">
<g id="surface1">
<path style=" stroke:none;fill-rule:nonzero;fill:rgb(0%,0%,0%);fill-opacity:1;" d="M 135.519531 83.386719 C 132.871094 83.667969 133.785156 86.105469 132.3125 86.15625 C 130.859375 86.210938 131.15625 83.054688 135.519531 83.386719 Z M 143.503906 83.789062 C 146.082031 83.125 146.09375 85.722656 147.503906 85.25 C 148.871094 84.789062 147.480469 81.953125 143.503906 83.789062 Z M 232.335938 253.765625 C 224.371094 257.769531 213.988281 266.660156 210.105469 270.347656 C 207.25 273.078125 195.285156 274.433594 188.636719 271.011719 C 180.757812 266.957031 184.9375 260.628906 172.773438 260.328125 C 166.730469 260.1875 160.851562 260.132812 154.957031 260.203125 C 149.746094 260.273438 144.539062 260.433594 139.222656 260.710938 C 120.960938 260.871094 119.171875 272.8125 107.539062 272.375 C 99.578125 272.082031 89.527344 265.800781 72.269531 262.1875 C 60.144531 259.660156 48.5 259.0625 46.007812 253.695312 C 43.515625 248.34375 49.078125 242.347656 49.449219 237.015625 C 49.902344 230.066406 44.183594 220.609375 48.410156 216.949219 C 51.902344 213.914062 59.550781 216.140625 64.480469 213.386719 C 69.722656 210.476562 71.828125 208.054688 71.828125 201.667969 C 73.757812 208.191406 71.742188 213.597656 67.40625 216.246094 C 64.828125 217.804688 60.035156 218.628906 56.097656 218.226562 C 52.976562 217.933594 51.042969 218.4375 50.09375 219.628906 C 48.882812 221.171875 49.273438 223.875 50.796875 227.46875 C 52.328125 231.066406 54.167969 233.347656 53.917969 237.75 C 53.671875 242.152344 48.832031 247.382812 49.605469 251.085938 C 49.902344 252.507812 51.300781 253.695312 54.65625 254.644531 C 60.21875 256.207031 70.144531 257.625 79.9375 260.011719 C 90.824219 262.679688 102.066406 267.710938 109.054688 266.746094 C 129.941406 263.835938 118.03125 241.433594 114.648438 236.105469 C 97.019531 208.351562 85.359375 190.179688 76.023438 197.390625 C 73.585938 199.269531 73.492188 192.667969 73.601562 190.128906 C 74.003906 181.003906 78.636719 177.8125 81.390625 170.710938 C 86.546875 157.414062 90.566406 142.183594 98.542969 134.308594 C 104.476562 126.714844 113.738281 114.210938 115.511719 107.613281 C 114.019531 93.265625 113.558594 78.164062 113.332031 64.933594 C 113.105469 50.863281 115.335938 38.519531 131.222656 29.886719 C 135.097656 27.78125 140.132812 27.011719 145.46875 26.957031 C 155.011719 26.851562 165.53125 29.523438 172.253906 34.503906 C 182.96875 42.449219 189.707031 59.355469 188.917969 71.515625 C 188.285156 80.878906 189.96875 90.6875 192.972656 100.773438 C 196.5625 112.75 202.25 121.171875 211.277344 130.75 C 222.160156 142.289062 230.632812 165.027344 233.015625 179.429688 C 235.261719 192.882812 232.335938 201.199219 229.382812 201.617188 C 224.988281 202.265625 222.246094 216.230469 208.476562 215.582031 C 199.6875 215.15625 198.828125 209.96875 196.390625 205.546875 C 192.476562 198.472656 188.496094 200.6875 186.898438 208.054688 C 186.074219 211.824219 186.671875 217.230469 187.882812 221.4375 C 190.335938 230.054688 189.492188 238.226562 188.027344 248.132812 C 185.21875 267.152344 201.316406 270.75 212.179688 261.710938 C 222.894531 252.785156 225.191406 251.367188 238.753906 246.734375 C 259.203125 239.730469 252.332031 233.539062 241.335938 229.839844 C 231.476562 226.527344 231.070312 209.863281 234.601562 206.722656 C 235.386719 224.613281 244.699219 227.210938 248.648438 229.652344 C 265.566406 240.152344 242.257812 248.769531 232.335938 253.765625 Z M 186.792969 201.355469 C 188.652344 199.144531 190.847656 198.898438 193.738281 198.84375 C 194.179688 187.9375 211.160156 188.742188 216.71875 193.304688 C 216.71875 190.777344 211.382812 188.511719 209.246094 187.445312 C 212.949219 175.128906 211.210938 170.183594 208.757812 158.554688 C 206.894531 149.679688 198.808594 137.734375 192.476562 133.996094 C 194.074219 135.394531 197.109375 139.46875 200.320312 145.445312 C 205.84375 155.734375 211.300781 170.9375 207.667969 183.707031 C 206.269531 188.582031 203.074219 189.195312 200.878906 189.441406 C 191.144531 190.457031 196.867188 177.9375 192.824219 160.6875 C 188.324219 141.515625 183.707031 140.078125 182.546875 138.574219 C 176.96875 113.628906 170.761719 116.117188 169.007812 106.699219 C 167.429688 98.367188 176.269531 91.472656 164.253906 89.144531 C 160.589844 88.421875 155.347656 84.707031 153.253906 84.441406 C 151.183594 84.160156 150.167969 70.691406 157.765625 70.144531 C 165.359375 69.582031 166.8125 78.722656 165.320312 82.320312 C 163.160156 85.882812 165.480469 87.214844 169.234375 86.054688 C 172.308594 85.109375 170.324219 77.105469 171.058594 75.921875 C 169.078125 64.464844 164.292969 62.8125 159.308594 61.851562 C 140.398438 63.300781 148.890625 84.25 146.972656 82.230469 C 144.292969 79.390625 136.238281 82.074219 136.28125 80.25 C 136.453125 69.570312 132.871094 63.378906 127.941406 63.25 C 122.453125 63.089844 120.1875 70.777344 119.855469 75.109375 C 119.542969 79.265625 122.328125 87.929688 124.363281 87.265625 C 125.695312 86.824219 127.976562 84.148438 125.535156 84.160156 C 124.273438 84.175781 122.367188 81.214844 122.167969 77.613281 C 121.980469 74.023438 123.292969 70.40625 127.960938 70.597656 C 133.433594 70.808594 133.378906 81.5 132.785156 81.914062 C 131.03125 83.128906 128.785156 85.480469 128.542969 85.882812 C 126.804688 88.792969 123.3125 89.511719 122.03125 90.792969 C 119.597656 93.230469 119.101562 95.984375 120.929688 97.039062 C 127.1875 100.628906 125.152344 104.628906 133.910156 105 C 139.660156 105.226562 143.988281 104.105469 147.902344 102.910156 C 150.953125 101.984375 160.746094 99.898438 162.8125 96.300781 C 163.707031 94.773438 164.835938 94.722656 165.585938 95.160156 C 166.898438 95.917969 167.183594 98.460938 163.796875 99.371094 C 158.953125 100.683594 154.066406 103.265625 149.777344 104.984375 C 145.503906 106.71875 144.132812 107.382812 140.101562 108.125 C 131.007812 109.753906 124.296875 104.84375 130.394531 110.738281 C 132.417969 112.703125 134.363281 113.929688 139.59375 113.71875 C 151.046875 113.261719 163.878906 99.511719 165.148438 105.667969 C 165.410156 106.929688 161.519531 108.644531 158.484375 110.15625 C 147.746094 115.4375 140.183594 125.871094 133.308594 122.261719 C 127.15625 119.019531 121.035156 103.757812 121.140625 110.59375 C 121.3125 121.136719 107.242188 130.519531 113.714844 142.519531 C 109.523438 143.664062 99.964844 163.832031 98.589844 174.335938 C 97.839844 180.285156 99.160156 187.757812 97.734375 191.933594 C 95.664062 197.964844 86.265625 186.183594 89.265625 171.742188 C 89.804688 169.199219 89.351562 168.660156 88.667969 169.886719 C 84.847656 176.640625 86.949219 186.058594 89.960938 192.671875 C 91.28125 195.53125 94.367188 196.792969 96.648438 199.339844 C 101.574219 204.847656 120.421875 218.824219 123.835938 222.175781 C 127.976562 226.242188 126.816406 235.578125 118.015625 236.46875 C 122.523438 244.980469 126.921875 245.785156 126.855469 259.699219 C 131.957031 256.957031 129.902344 250.964844 127.769531 247.015625 C 126.277344 244.3125 124.324219 243.085938 124.75 242.457031 C 125.066406 241.980469 127.695312 239.71875 129.273438 241.488281 C 133.921875 246.695312 142.695312 247.628906 152.132812 246.453125 C 161.550781 245.257812 171.652344 241.964844 176.320312 234.457031 C 178.511719 230.929688 180.089844 229.683594 181.105469 230.300781 C 182.109375 230.929688 182.542969 233.421875 182.4375 237.417969 C 182.320312 241.859375 180.460938 246.46875 179.304688 250.15625 C 178.003906 254.332031 177.601562 257.292969 181.671875 257.453125 C 182.878906 249.730469 185.003906 242.136719 185.617188 234.457031 C 186.300781 225.722656 179.972656 209.457031 186.792969 201.355469 Z M 129.0625 77.320312 C 128.75 79.039062 128.875 80.113281 130.066406 80.113281 C 130.257812 80.113281 130.46875 80.074219 130.542969 79.636719 C 131.117188 76.214844 129.347656 73.726562 128.625 73.527344 C 126.945312 73.109375 127.15625 75.507812 128.03125 75.320312 C 128.558594 75.210938 129.273438 76.089844 129.0625 77.320312 Z M 160.152344 72.617188 C 158.429688 72.777344 158.925781 73.632812 159.78125 73.878906 C 160.902344 74.214844 161.957031 76.121094 162.199219 78.195312 C 162.21875 78.386719 163.636719 77.898438 163.636719 77.441406 C 163.746094 74.121094 160.902344 72.550781 160.152344 72.617188 Z M 160.152344 72.617188 "/>
</g>
</svg>
